<?xml version="1.0" encoding="UTF-8"?>
<!DOCTYPE svg PUBLIC "-//W3C//DTD SVG 1.1//EN" "http://www.w3.org/Graphics/SVG/1.1/DTD/svg11.dtd">
<svg xmlns="http://www.w3.org/2000/svg" version="1.1" width="312px" height="312px" style="shape-rendering:geometricPrecision; text-rendering:geometricPrecision; image-rendering:optimizeQuality; fill-rule:evenodd; clip-rule:evenodd" xmlns:xlink="http://www.w3.org/1999/xlink">
<g><path style="opacity:0.964" fill="#fcfcfc" d="M 137.5,-0.5 C 149.5,-0.5 161.5,-0.5 173.5,-0.5C 233.812,8.97708 276.312,41.6437 301,97.5C 306.093,110.546 309.593,123.88 311.5,137.5C 311.5,149.5 311.5,161.5 311.5,173.5C 302.528,230.635 272.195,272.135 220.5,298C 204.633,304.685 188.3,309.185 171.5,311.5C 160.833,311.5 150.167,311.5 139.5,311.5C 70.1141,300.618 24.9475,261.618 4,194.5C 2.37498,187.053 0.874978,179.72 -0.5,172.5C -0.5,161.167 -0.5,149.833 -0.5,138.5C 13.3913,60.2754 59.3913,13.9421 137.5,-0.5 Z"/></g>
<g><path style="opacity:1" fill="#fdf013" d="M 237.5,39.5 C 189.569,121.03 141.903,202.697 94.5,284.5C 35.8723,253.266 9.03892,204.266 14,137.5C 16.3997,118.301 22.3997,100.301 32,83.5C 34.7909,78.2283 38.2909,73.5616 42.5,69.5C 42.3333,111.835 42.5,154.168 43,196.5C 43.7083,197.381 44.5416,198.047 45.5,198.5C 68.5,199.167 91.5,199.833 114.5,200.5C 103.468,224.901 92.1348,249.234 80.5,273.5C 80.8457,274.696 81.3457,274.696 82,273.5C 109.967,225.37 138.134,177.37 166.5,129.5C 164.081,115.914 156.081,107.747 142.5,105C 159.619,97.7835 166.952,84.7835 164.5,66C 165.897,38.2017 153.23,21.3683 126.5,15.5C 159.208,9.3392 190.541,13.5059 220.5,28C 226.578,31.3613 232.245,35.1947 237.5,39.5 Z"/></g>
<g><path style="opacity:1" fill="#373435" d="M 126.5,15.5 C 153.23,21.3683 165.897,38.2017 164.5,66C 166.952,84.7835 159.619,97.7835 142.5,105C 156.081,107.747 164.081,115.914 166.5,129.5C 138.134,177.37 109.967,225.37 82,273.5C 81.3457,274.696 80.8457,274.696 80.5,273.5C 92.1348,249.234 103.468,224.901 114.5,200.5C 115.043,200.44 115.376,200.107 115.5,199.5C 92.1762,198.5 68.8429,198.167 45.5,198.5C 44.5416,198.047 43.7083,197.381 43,196.5C 42.5,154.168 42.3333,111.835 42.5,69.5C 42.3433,68.1266 42.51,66.7932 43,65.5C 61.9068,41.4507 86.0735,24.9507 115.5,16C 119.152,15.5014 122.818,15.3347 126.5,15.5 Z"/></g>
<g><path style="opacity:1" fill="#373434" d="M 237.5,39.5 C 242.071,41.7376 246.071,44.7376 249.5,48.5C 222.027,95.437 194.527,142.437 167,189.5C 166.5,225.498 166.333,261.498 166.5,297.5C 141.277,299.588 117.277,295.254 94.5,284.5C 141.903,202.697 189.569,121.03 237.5,39.5 Z"/></g>
<g><path style="opacity:1" fill="#fef112" d="M 80.5,45.5 C 92.5046,45.3335 104.505,45.5001 116.5,46C 122.648,46.4764 126.482,49.643 128,55.5C 128.667,63.8333 128.667,72.1667 128,80.5C 126.5,84.6667 123.667,87.5 119.5,89C 106.167,89.6667 92.8333,89.6667 79.5,89C 78.3441,75.2417 78.1774,61.4083 79,47.5C 79.7172,46.9558 80.2172,46.2891 80.5,45.5 Z"/></g>
<g><path style="opacity:1" fill="#383535" d="M 250.5,49.5 C 292.715,89.3204 306.882,137.654 293,194.5C 278.299,241.031 248.132,272.698 202.5,289.5C 202.333,272.163 202.5,254.83 203,237.5C 203.308,236.692 203.808,236.025 204.5,235.5C 222.79,234.68 241.123,234.18 259.5,234C 260.126,233.25 260.626,232.416 261,231.5C 261.667,223.167 261.667,214.833 261,206.5C 260.167,205.667 259.333,204.833 258.5,204C 240.5,203.667 222.5,203.333 204.5,203C 204,202.5 203.5,202 203,201.5C 202.333,185.833 202.333,170.167 203,154.5C 203.5,154 204,153.5 204.5,153C 225.167,152.667 245.833,152.333 266.5,152C 267.667,151.5 268.5,150.667 269,149.5C 269.667,140.833 269.667,132.167 269,123.5C 268.5,123 268,122.5 267.5,122C 250.5,121.667 233.5,121.333 216.5,121C 227.975,97.2164 239.309,73.3831 250.5,49.5 Z"/></g>
<g><path style="opacity:1" fill="#fdf112" d="M 249.5,48.5 C 250.167,48.5 250.5,48.8333 250.5,49.5C 239.309,73.3831 227.975,97.2164 216.5,121C 233.5,121.333 250.5,121.667 267.5,122C 268,122.5 268.5,123 269,123.5C 269.667,132.167 269.667,140.833 269,149.5C 268.5,150.667 267.667,151.5 266.5,152C 245.833,152.333 225.167,152.667 204.5,153C 204,153.5 203.5,154 203,154.5C 202.333,170.167 202.333,185.833 203,201.5C 203.5,202 204,202.5 204.5,203C 222.5,203.333 240.5,203.667 258.5,204C 259.333,204.833 260.167,205.667 261,206.5C 261.667,214.833 261.667,223.167 261,231.5C 260.626,232.416 260.126,233.25 259.5,234C 241.123,234.18 222.79,234.68 204.5,235.5C 203.808,236.025 203.308,236.692 203,237.5C 202.5,254.83 202.333,272.163 202.5,289.5C 191.103,294.315 179.103,296.982 166.5,297.5C 166.333,261.498 166.5,225.498 167,189.5C 194.527,142.437 222.027,95.437 249.5,48.5 Z"/></g>
<g><path style="opacity:1" fill="#fcef13" d="M 79.5,119.5 C 93.1707,119.333 106.837,119.5 120.5,120C 126.235,120.772 129.735,123.938 131,129.5C 131.667,138.833 131.667,148.167 131,157.5C 129.578,164.921 125.078,168.754 117.5,169C 105.167,169.667 92.8333,169.667 80.5,169C 80,168.5 79.5,168 79,167.5C 78.1831,151.426 78.3498,135.426 79.5,119.5 Z"/></g>
<g><path style="opacity:1" fill="#67612b" d="M 45.5,198.5 C 68.8429,198.167 92.1762,198.5 115.5,199.5C 115.376,200.107 115.043,200.44 114.5,200.5C 91.5,199.833 68.5,199.167 45.5,198.5 Z"/></g>
</svg>
